<svg xmlns="http://www.w3.org/2000/svg" xmlns:xlink="http://www.w3.org/1999/xlink" viewBox="0 0 500 500"><defs><style>.cls-1{fill:url(#linear-gradient);}.cls-2{fill:url(#linear-gradient-2);}</style><linearGradient id="linear-gradient" x1="43.9" y1="351.47" x2="502.91" y2="152.9" gradientTransform="translate(45.25 -36.66) rotate(9.22)" gradientUnits="userSpaceOnUse"><stop offset="0" stop-color="#bcd6ed"/><stop offset="0.14" stop-color="#b3c5dd"/><stop offset="0.42" stop-color="#9a9ab3"/><stop offset="0.81" stop-color="#73556f"/><stop offset="1" stop-color="#5e314c"/></linearGradient><linearGradient id="linear-gradient-2" x1="39.41" y1="341.1" x2="498.43" y2="142.53" gradientTransform="matrix(1, 0, 0, 1, 0, 0)" xlink:href="#linear-gradient"/></defs><g id="Layer_3" data-name="Layer 3"><circle class="cls-1" cx="250" cy="262.31" r="61.09" transform="translate(-38.79 43.43) rotate(-9.22)"/><path class="cls-2" d="M250,0C111.93,0,0,111.93,0,250S111.93,500,250,500,500,388.07,500,250,388.07,0,250,0ZM375.87,331.9a9.21,9.21,0,0,1-9.18,9.19H133.31a9.21,9.21,0,0,1-9.18-9.19V196.69a9.21,9.21,0,0,1,9.18-9.18h68l1.42-12.18a18.55,18.55,0,0,1,18.43-16.42H276.3a18.56,18.56,0,0,1,18.46,16.66L296,187.51h14.26a10.32,10.32,0,0,1,10-7.81h29.5a10.33,10.33,0,0,1,10,7.81h6.92a9.21,9.21,0,0,1,9.18,9.18Z"/></g></svg>