<svg xmlns="http://www.w3.org/2000/svg" xmlns:xlink="http://www.w3.org/1999/xlink" viewBox="0 0 500 500"><defs><style>.cls-1{fill:url(#linear-gradient);}</style><linearGradient id="linear-gradient" x1="39.41" y1="341.1" x2="498.43" y2="142.53" gradientUnits="userSpaceOnUse"><stop offset="0" stop-color="#bcd6ed"/><stop offset="0.14" stop-color="#b3c5dd"/><stop offset="0.42" stop-color="#9a9ab3"/><stop offset="0.81" stop-color="#73556f"/><stop offset="1" stop-color="#5e314c"/></linearGradient></defs><g id="Layer_2" data-name="Layer 2"><path class="cls-1" d="M250,0C111.93,0,0,111.93,0,250S111.93,500,250,500,500,388.07,500,250,388.07,0,250,0Zm-1.1,404.84L181.66,239.9a58.42,58.42,0,0,0,49.29-2,72.49,72.49,0,0,0,80,14.64ZM281.76,248.7A61.74,61.74,0,0,1,232.83,225a47.8,47.8,0,0,1-28.68,9.46c-26,0-47.15-20.52-47.15-45.84a45.48,45.48,0,0,1,21.23-38.29c-1.4-22,16.84-44.31,44.29-52.25,30.75-8.9,61.38,3.6,68.42,27.92a37.94,37.94,0,0,1,1,4.51c29,4.71,51.06,29.19,51.06,58.7C343,222,315.58,248.7,281.76,248.7Z"/></g></svg>