<svg id="Layer_1" data-name="Layer 1" xmlns="http://www.w3.org/2000/svg" viewBox="0 0 500 500"><defs><style>.cls-1{fill:#76c485;}</style></defs><path class="cls-1" d="M362.23,129.49C362.23,63.23,311.88,9.32,250,9.32S137.77,63.23,137.77,129.49V376.67a17,17,0,0,0,17,17H204a17,17,0,0,1,17,17V458c0,18,13,32.65,29,32.65S279,476,279,458V410.66a17,17,0,0,1,17-17h49.25a17,17,0,0,0,17-17ZM267,458c0,11.39-7.62,20.65-17,20.65s-17-9.26-17-20.65V410.66a17,17,0,0,1,17-17h0a17,17,0,0,1,17,17Zm83.24-93.36a17,17,0,0,1-17,17H166.76a17,17,0,0,1-17-17V129.49c0-59.64,45-108.17,100.23-108.17S350.23,69.85,350.23,129.49Z"/><path class="cls-1" d="M290.47,79.22A31.5,31.5,0,0,0,259,110.7V361.5a6,6,0,0,0,6,6h0a6,6,0,0,0,6-6V110.7a19.45,19.45,0,0,1,38.38-4.46,5.91,5.91,0,0,0,5.79,4.46h0a6,6,0,0,0,5.83-7.47A31.51,31.51,0,0,0,290.47,79.22Z"/><path class="cls-1" d="M209.53,79.22a31.5,31.5,0,0,0-31.44,31.48V361.5a6,6,0,0,0,6,6h0a6,6,0,0,0,6-6V110.7a19.44,19.44,0,0,1,38.37-4.46,5.92,5.92,0,0,0,5.8,4.46h0a6,6,0,0,0,5.82-7.47A31.5,31.5,0,0,0,209.53,79.22Z"/></svg>