<svg id="Layer_1" data-name="Layer 1" xmlns="http://www.w3.org/2000/svg" viewBox="0 0 500 500"><defs><style>.cls-1{fill:#5e314c;}</style></defs><path class="cls-1" d="M475.52,172H388.45V117.82a20,20,0,0,0-4.72-12.9,26.64,26.64,0,0,0,11.35-21.81c0-11.87-9.46-47.69-26.67-47.69s-26.66,35.82-26.66,47.69a26.64,26.64,0,0,0,11.35,21.81,20,20,0,0,0-4.72,12.9V172H270V98.36a19.92,19.92,0,0,0-4.72-12.89,26.68,26.68,0,0,0,11.35-21.82C276.67,51.78,267.21,16,250,16s-26.67,35.81-26.67,47.68a26.68,26.68,0,0,0,11.35,21.82A19.92,19.92,0,0,0,230,98.36V172H152.83V117.82a20,20,0,0,0-4.72-12.9,26.66,26.66,0,0,0,11.35-21.81c0-11.87-9.46-47.69-26.67-47.69s-26.67,35.82-26.67,47.69a26.66,26.66,0,0,0,11.35,21.81,20,20,0,0,0-4.72,12.9V172H24.48A24.92,24.92,0,0,0-.41,196.85v97.38a24,24,0,0,0,9.88,19.43V454.38a19.49,19.49,0,0,0,19.47,19.47H472.69a19.49,19.49,0,0,0,19.47-19.47V310.75a26.67,26.67,0,0,0,8.25-19.37V196.85A24.92,24.92,0,0,0,475.52,172ZM359.34,60.29c4.44-10.68,8.29-12.87,9.07-12.87s4.64,2.19,9.08,12.87c3.63,8.74,5.59,18.28,5.59,22.82a14.67,14.67,0,1,1-29.33,0C353.75,78.57,355.71,69,359.34,60.29Zm1,57.53a8,8,0,1,1,16.07,0V172H360.38Zm-119.45-77C245.37,30.15,249.21,28,250,28s4.63,2.18,9.07,12.86c3.64,8.74,5.6,18.28,5.6,22.82a14.67,14.67,0,0,1-29.34,0C235.33,59.11,237.29,49.57,240.93,40.83Zm1,57.53a8,8,0,0,1,16.08,0V172H242ZM123.72,60.29c4.44-10.68,8.28-12.87,9.07-12.87s4.63,2.19,9.07,12.87c3.64,8.74,5.6,18.28,5.6,22.82a14.67,14.67,0,0,1-29.34,0C118.12,78.57,120.08,69,123.72,60.29Zm1,57.53a8,8,0,0,1,16.08,0V172H124.75Zm-113.16,79A12.9,12.9,0,0,1,24.48,184h451a12.9,12.9,0,0,1,12.89,12.89v94.53a15,15,0,0,1-14.94,14.94,6.52,6.52,0,0,1-6.51-6.51,22.52,22.52,0,0,0-22.5-22.49,12,12,0,0,1-12-12,22.37,22.37,0,1,0-44.74,0v1.05a13.88,13.88,0,0,1-13.86,13.86H340.67a22.37,22.37,0,0,0-44.73.81v1a13.87,13.87,0,0,1-27.74,0V261.51a22.37,22.37,0,0,0-44.74,0V271.7a7.1,7.1,0,0,1-7.09,7.1H173.65a4.61,4.61,0,0,1-4.6-4.61,15.53,15.53,0,0,0-15.52-15.51H139.82a15.53,15.53,0,0,0-15.52,15.51v7.19A14.6,14.6,0,0,1,109.72,296H95.09a14.59,14.59,0,0,1-14.57-14.58V265.33a22.38,22.38,0,0,0-44.75,0v28.9a12.1,12.1,0,0,1-12.09,12.09,12.13,12.13,0,0,1-12.09-12.09ZM480.16,317.48v59.35H21.47V318.22h.24c.65,0,1.31.09,2,.09a24.12,24.12,0,0,0,24.09-24.09v-28.9a9.11,9.11,0,0,1,.06-1.05,10.37,10.37,0,0,1,20.63,0,9.11,9.11,0,0,1,.06,1.05v16.05c0,.49,0,1,0,1.48,0,.68.1,1.35.19,2a27,27,0,0,0,.86,4c0,.12.06.24.1.36a26.49,26.49,0,0,0,4.76,8.85l.12.16c.47.56,1,1.1,1.47,1.63l.25.25a3.07,3.07,0,0,0,.26.25c.52.51,1.06,1,1.63,1.47l.16.13a26.7,26.7,0,0,0,8.84,4.75l.37.11a26.56,26.56,0,0,0,4,.85c.67.09,1.34.16,2,.19.49,0,1,0,1.47,0h14.63c.5,0,1,0,1.48,0,.68,0,1.36-.1,2-.19a26.82,26.82,0,0,0,4-.85l.37-.11a26.7,26.7,0,0,0,8.84-4.75l.16-.13c.57-.47,1.11-1,1.63-1.47a3.07,3.07,0,0,0,.26-.25l.25-.25c.51-.53,1-1.07,1.47-1.63l.12-.16a26.93,26.93,0,0,0,3.53-5.67c.17-.37.33-.74.48-1.12.28-.67.53-1.36.75-2.06,0-.12.06-.24.1-.36a27,27,0,0,0,.86-4c.08-.67.15-1.34.19-2,0-.49,0-1,0-1.48v-7.19a3.52,3.52,0,0,1,3.52-3.51h13.71a3.52,3.52,0,0,1,3.52,3.51,16.62,16.62,0,0,0,16.6,16.61h42.72a19.12,19.12,0,0,0,19.09-19.1V261.51a11,11,0,0,1,.21-2.08,10.37,10.37,0,0,1,20.32,0,10.19,10.19,0,0,1,.21,2.08v20.58a25.87,25.87,0,0,0,51.74,0v-1a10.38,10.38,0,0,1,20.75,0,11.19,11.19,0,0,0,11.18,11.19h34a25.89,25.89,0,0,0,25.86-25.86v-1.05c0-.35,0-.71.05-1.05a10.37,10.37,0,0,1,20.64,0c0,.34.05.7.05,1.05a24,24,0,0,0,24,24A10.51,10.51,0,0,1,455,299.81a18.53,18.53,0,0,0,18.51,18.51c.67,0,1.34,0,2-.08l.61-.06c.47,0,.94-.1,1.41-.17l.63-.1c.53-.09,1.06-.2,1.58-.33l.37-.08Zm-7.47,144.37H28.94a7.48,7.48,0,0,1-7.47-7.47V388.83H480.16v65.55A7.48,7.48,0,0,1,472.69,461.85Z"/></svg>