<svg id="Layer_1" data-name="Layer 1" xmlns="http://www.w3.org/2000/svg" viewBox="0 0 500 500"><defs><style>.cls-1{fill:#5e314c;}</style></defs><path class="cls-1" d="M388.51,173.23a60.19,60.19,0,0,0-47.08-58.81A95.07,95.07,0,1,0,152.8,116a60.25,60.25,0,0,0,14.27,117.26l76.31,254.08a6.22,6.22,0,0,0,11.91,0l77.62-254.1A60.34,60.34,0,0,0,388.51,173.23ZM234.31,413.9l27.9-83.27a6.23,6.23,0,0,0-3.92-7.88h0a6.23,6.23,0,0,0-7.88,3.93L228.1,393.24l-16-53.19,37.2-65.17a6.22,6.22,0,0,0-2.31-8.49h0a6.24,6.24,0,0,0-8.5,2.32L207.19,323.6,180,232.94a59.38,59.38,0,0,0,22.55-7.87,60.25,60.25,0,0,0,94.1-.54A59.38,59.38,0,0,0,320,232.94L255.39,444.46a6.22,6.22,0,0,1-11.91,0Zm93.93-192.85A47.29,47.29,0,0,1,298.92,211l-5.43-4.22-3.66,5.82a47.81,47.81,0,0,1-80.59.61l-3.62-5.56-5.32,4a47.37,47.37,0,0,1-28.54,9.46,47.82,47.82,0,0,1-10.54-94.46l5.91-1.33L166,119.32a82.63,82.63,0,1,1,163.69-16,83.82,83.82,0,0,1-1.41,15.14L327,125l6.64.75a47.81,47.81,0,0,1-5.42,95.32Z"/></svg>