<svg id="Layer_1" data-name="Layer 1" xmlns="http://www.w3.org/2000/svg" viewBox="0 0 500 500"><defs><style>.cls-1{fill:#76c485;}</style></defs><path class="cls-1" d="M368.26,234.05c0-77.46-49.07-141-110.63-145.09A6,6,0,0,1,253,86.14l-35.4-57.29a6,6,0,0,0-3.81-2.7L139,9.59a6,6,0,0,0-7.16,4.56h0a6,6,0,0,0,4.56,7.16l69.79,15.46a6,6,0,0,1,3.8,2.7L236.1,81.66a6,6,0,0,1-3.9,9c-55.5,11.33-98,71.3-98,143.37h0a6,6,0,0,0,6,6H141a6,6,0,0,1,6,5.53l19,239.44a6,6,0,0,0,6,5.53H330.6a6,6,0,0,0,6-5.53l19-239.44a6,6,0,0,1,6-5.53h.73a6,6,0,0,0,6-6Zm-117-133.31c54.61,0,99.63,53.2,104.56,120.93a6,6,0,0,1-6,6.38H152.67a6,6,0,0,1-6-6.38C151.62,153.94,196.63,100.74,251.25,100.74Zm70.43,350.42H293.19a6,6,0,0,0-6,6h0a6,6,0,0,0,6,6h26.59a6,6,0,0,1,6,6.47l-.27,3.39a6,6,0,0,1-6,5.53H183a6,6,0,0,1-6-5.53L161.35,275.44a6,6,0,0,1,6-6.47h105.4a6,6,0,0,0,6-6h0a6,6,0,0,0-6-6H165.43a6,6,0,0,1-6-5.53l-.39-4.92a6,6,0,0,1,6-6.47H337.45a6,6,0,0,1,6,6.47L327.66,445.63A6,6,0,0,1,321.68,451.16Z"/></svg>