<svg id="Layer_7" data-name="Layer 7" xmlns="http://www.w3.org/2000/svg" xmlns:xlink="http://www.w3.org/1999/xlink" viewBox="0 0 500 500"><defs><style>.cls-1{fill:url(#linear-gradient);}</style><linearGradient id="linear-gradient" x1="39.41" y1="341.1" x2="498.43" y2="142.53" gradientUnits="userSpaceOnUse"><stop offset="0" stop-color="#bcd6ed"/><stop offset="0.14" stop-color="#b3c5dd"/><stop offset="0.42" stop-color="#9a9ab3"/><stop offset="0.81" stop-color="#73556f"/><stop offset="1" stop-color="#5e314c"/></linearGradient></defs><path class="cls-1" d="M457.3,110.22a250.8,250.8,0,0,0-22.25-28.31q-4-4.44-8.27-8.69a252.25,252.25,0,0,0-22.43-19.9q-7.1-5.57-14.57-10.62c-1.67-1.13-3.34-2.23-5-3.31A250.17,250.17,0,0,0,122.3,35.05c-2.37,1.41-4.73,2.85-7,4.34-1.69,1.08-3.36,2.18-5,3.31q-7.47,5.05-14.57,10.62Q89.68,58,84,63.07T73.22,73.22Q69,77.47,65,81.91a249.76,249.76,0,0,0,0,336.18c2,2.23,4.1,4.41,6.2,6.57q2.1,2.14,4.24,4.24,5.35,5.22,11,10.14,4.55,3.93,9.26,7.64,7.09,5.56,14.57,10.62t15.34,9.58a250.49,250.49,0,0,0,213.94,16.6q2.25-.86,4.47-1.76c2.18-.88,4.33-1.8,6.48-2.74q2.1-.92,4.19-1.88,6.44-3,12.68-6.3c2.39-1.27,4.77-2.57,7.12-3.92q7.85-4.51,15.34-9.58t14.57-10.62q4.72-3.72,9.26-7.64A250.07,250.07,0,0,0,457.3,110.22ZM355,130.79c0,8.53-2.55,11.26-11.09,11.4-9.57.16-19.15,0-28.73.08-4.6,0-9.21-.11-13.78.86-8.87,1.88-12.57,6.15-14.3,15-2.54,13.07-.55,26.2-1.27,39.28-.15,2.84,1.63,2.78,3.61,2.78,17.42,0,34.85.18,52.26-.1,7-.11,11.42,3.39,11.27,11.37-.32,16.74-.1,33.49-.11,50.24,0,9.15-3,12.17-12.29,12.19q-24.75,0-49.5,0c-5.23,0-5.23,0-5.23,5.38V416.87a38.27,38.27,0,0,1-.09,4.15c-.45,4.12-3.24,6.93-7.27,6.94q-33.22.1-66.46,0c-3.72,0-6.1-2.32-7-6a28.14,28.14,0,0,1-.51-6.54q0-68.08,0-136.17c0-5.27,0-5.28-5.39-5.28-13.39,0-26.78-.17-40.16.06-8.4.14-12.75-3.12-12.71-12.72q.09-24.94,0-49.9c0-6.33,3.71-11.59,11.18-11.31,14.06.53,28.15.15,42.23.15,4.85,0,4.86,0,4.86-5,0-10.86-.16-21.72,0-32.57.24-12.37,1-24.79,5.61-36.4,4.83-12,11.56-22.82,21.58-31.57,14.67-12.81,31.88-18.94,50.8-21.29a12.18,12.18,0,0,0,1.65-.44h65.09c4.42,1.75,5.69,5.34,5.69,9.71Q355,106.71,355,130.79Z"/></svg>