<svg xmlns="http://www.w3.org/2000/svg" xmlns:xlink="http://www.w3.org/1999/xlink" viewBox="0 0 500 500"><defs><style>.cls-1{fill:url(#linear-gradient);}</style><linearGradient id="linear-gradient" x1="39.41" y1="341.1" x2="498.43" y2="142.53" gradientUnits="userSpaceOnUse"><stop offset="0" stop-color="#bcd6ed"/><stop offset="0.14" stop-color="#b3c5dd"/><stop offset="0.42" stop-color="#9a9ab3"/><stop offset="0.81" stop-color="#73556f"/><stop offset="1" stop-color="#5e314c"/></linearGradient></defs><g id="Layer_1" data-name="Layer 1"><path class="cls-1" d="M250,0C111.93,0,0,111.93,0,250S111.93,500,250,500,500,388.07,500,250,388.07,0,250,0ZM372.53,361.73a23,23,0,0,1-23,23h-63V261.31h-73V384.73h-63a23,23,0,0,1-23-23V247.62c.44-.27.88-.54,1.3-.84L250,161.9l121.23,84.88c.42.3.86.57,1.3.84ZM400.26,236h0a17.61,17.61,0,0,1-24.54,4.32L250,152.34l-125.72,88A17.61,17.61,0,0,1,99.74,236h0a17.62,17.62,0,0,1,4.33-24.54l130.47-91.36a27,27,0,0,1,30.92,0l63.46,44.44V126a7.86,7.86,0,0,1,7.86-7.86h17.35A7.86,7.86,0,0,1,362,126v61.78l33.94,23.77A17.62,17.62,0,0,1,400.26,236Z"/></g></svg>