<svg xmlns="http://www.w3.org/2000/svg" xmlns:xlink="http://www.w3.org/1999/xlink" viewBox="0 0 500 500"><defs><style>.cls-1{fill:url(#linear-gradient);}.cls-2{fill:url(#linear-gradient-2);}.cls-3{fill:url(#linear-gradient-3);}</style><linearGradient id="linear-gradient" x1="39.85" y1="342.11" x2="498.86" y2="143.53" gradientUnits="userSpaceOnUse"><stop offset="0" stop-color="#bcd6ed"/><stop offset="0.14" stop-color="#b3c5dd"/><stop offset="0.42" stop-color="#9a9ab3"/><stop offset="0.81" stop-color="#73556f"/><stop offset="1" stop-color="#5e314c"/></linearGradient><linearGradient id="linear-gradient-2" x1="39.85" y1="342.11" x2="498.86" y2="143.53" xlink:href="#linear-gradient"/><linearGradient id="linear-gradient-3" x1="39.41" y1="341.1" x2="498.43" y2="142.53" xlink:href="#linear-gradient"/></defs><g id="Layer_6" data-name="Layer 6"><path class="cls-1" d="M134.5,250.83q0,30.78,0,61.56a80.9,80.9,0,0,0,.52,9.95c3,24,25.66,44.67,49.82,44.75,43.63.15,87.25.05,130.88.07a54,54,0,0,0,6.61-.54c24.05-2.92,44.68-25.62,44.76-49.8.15-43.62.05-87.25.07-130.88a54.2,54.2,0,0,0-.54-6.61c-2.92-24-25.63-44.68-49.8-44.76-43.62-.15-87.25,0-130.88-.06a54.2,54.2,0,0,0-6.61.54c-24,2.91-44.6,25.62-44.77,49.79-.15,22,0,44,0,66ZM327,155.9c10.07-.16,18.8,8.43,18.9,18.6a18.77,18.77,0,0,1-37.54.52A19,19,0,0,1,327,155.9Zm-75.88,21.45c40.2.13,73.52,33.29,73.17,73.61.23,40.24-33.24,73.5-73.69,73.36-40.1-.13-73.29-33.22-73.23-73.61S210.62,177.21,251.09,177.35Z"/><path class="cls-2" d="M250.81,298.36a47.53,47.53,0,1,0-47.51-47.62A47.45,47.45,0,0,0,250.81,298.36Z"/><path class="cls-3" d="M250,500c138.07,0,250-111.93,250-250a251.55,251.55,0,0,0-2-31.84c-.26-2.09-.55-4.16-.87-6.23a249.85,249.85,0,0,0-6.6-30.37q-1.69-5.94-3.66-11.74a247.31,247.31,0,0,0-11.51-28.21q-1.32-2.73-2.7-5.42-2.76-5.4-5.77-10.63t-6.27-10.31c-1.08-1.69-2.18-3.36-3.31-5q-5.06-7.47-10.62-14.57Q443,90.93,439,86.39q-5.9-6.8-12.26-13.17Q422.54,69,418.09,65A249.76,249.76,0,0,0,81.91,65q-4.44,4-8.69,8.27Q66.86,79.58,61,86.39,57,90.94,53.32,95.65q-5.57,7.09-10.62,14.57c-1.13,1.67-2.23,3.34-3.31,5q-3.26,5.07-6.27,10.31t-5.77,10.63q-1.38,2.69-2.7,5.42a247.31,247.31,0,0,0-11.51,28.21q-2,5.81-3.66,11.74a249.85,249.85,0,0,0-6.6,30.37c-.32,2.07-.61,4.14-.87,6.23A251.55,251.55,0,0,0,0,250C0,388.07,111.93,500,250,500ZM108.59,185.12a66.81,66.81,0,0,1,1.4-13.19c7.67-37.89,41-63.49,77.06-63.35,42.52.16,85,0,127.55,0a66,66,0,0,1,10.22.56q40.92,6.46,60.13,43.14c4.25,8.11,6.35,16.9,7.89,25.84V323.5c-.29,1.35-.61,2.7-.86,4.06-4.71,25.68-18.76,44.55-41.65,56.91-8.38,4.53-17.5,6.8-26.83,8.37H178.16c-11.78-1.9-23-5.3-33.07-12-23-15.29-35.95-36.65-36.31-64.32C108.2,272.74,108.64,228.93,108.59,185.12Z"/></g></svg>