<svg xmlns="http://www.w3.org/2000/svg" xmlns:xlink="http://www.w3.org/1999/xlink" viewBox="0 0 500 500"><defs><style>.cls-1{fill:url(#linear-gradient);}.cls-2{fill:url(#linear-gradient-2);}.cls-3{fill:url(#linear-gradient-3);}</style><linearGradient id="linear-gradient" x1="20.31" y1="296.95" x2="479.33" y2="98.38" gradientUnits="userSpaceOnUse"><stop offset="0" stop-color="#bcd6ed"/><stop offset="0.14" stop-color="#b3c5dd"/><stop offset="0.42" stop-color="#9a9ab3"/><stop offset="0.81" stop-color="#73556f"/><stop offset="1" stop-color="#5e314c"/></linearGradient><linearGradient id="linear-gradient-2" x1="86.46" y1="449.85" x2="545.47" y2="251.27" xlink:href="#linear-gradient"/><linearGradient id="linear-gradient-3" x1="39.41" y1="341.1" x2="498.43" y2="142.53" xlink:href="#linear-gradient"/></defs><g id="Layer_4" data-name="Layer 4"><ellipse class="cls-1" cx="250" cy="197.58" rx="55.14" ry="64.49"/><path class="cls-2" d="M272.28,367.9c-8.64,19.21-35.92,19.21-44.56,0l-2.56-5.68c-9.84,3.87-16.19,10-16.19,16.87,0,11.71,18.37,21.21,41,21.21s41-9.5,41-21.21c0-6.88-6.35-13-16.19-16.87Z"/><path class="cls-3" d="M477.92,147.12a250.16,250.16,0,0,0-24-41.84c-1.17-1.64-2.35-3.25-3.55-4.86q-3.6-4.82-7.42-9.44c-1.27-1.55-2.56-3.07-3.87-4.59q-3.93-4.53-8.07-8.88T422.49,69Q420.32,67,418.09,65q-6.66-6.06-13.74-11.63-4.73-3.7-9.63-7.2-7.35-5.22-15.09-9.93-5.14-3.12-10.47-6A248.88,248.88,0,0,0,250,0a253.87,253.87,0,0,0-25.56,1.29q-9.45,1-18.69,2.61t-18.23,4q-6,1.55-11.86,3.37T164,15.17q-8.61,3.15-16.92,6.91t-16.28,8.09q-5.32,2.89-10.47,6-7.74,4.71-15.09,9.93c-1.64,1.17-3.25,2.35-4.86,3.55Q90.79,56.87,81.91,65q-2.22,2-4.4,4.08Q73.18,73.17,69,77.51T61,86.39q-7.86,9.08-14.84,18.89-3.48,4.91-6.73,10a250.18,250.18,0,0,0,0,269.5q3.24,5.07,6.73,10,7,9.81,14.84,18.89,3.93,4.53,8.07,8.88T77.51,431q2.17,2.07,4.4,4.08,8.88,8.07,18.51,15.28c1.61,1.2,3.22,2.38,4.86,3.55q7.35,5.22,15.09,9.93,5.14,3.12,10.47,6,8,4.32,16.28,8.09T164,484.83q5.75,2.1,11.62,3.93t11.86,3.37q9,2.31,18.23,4t18.69,2.61A253.87,253.87,0,0,0,250,500a248.88,248.88,0,0,0,119.16-30.17q5.32-2.9,10.47-6,7.74-4.71,15.09-9.93,4.9-3.5,9.63-7.2,7.08-5.56,13.74-11.63,2.22-2,4.4-4.08,4.33-4.14,8.48-8.48t8.07-8.88c1.31-1.52,2.6-3,3.87-4.59q3.82-4.62,7.42-9.44c1.2-1.61,2.38-3.22,3.55-4.86a250.36,250.36,0,0,0,24-247.6Zm-146.72,90c-.26.48-.51,1-.73,1.47L275,361.79c13.59,4.61,22.65,12.85,22.65,22.26,0,14.46-21.35,26.17-47.68,26.17s-47.68-11.71-47.68-26.17c0-9.41,9.06-17.65,22.65-22.26L169.53,238.55c-.22-.5-.47-1-.73-1.47a100.15,100.15,0,0,1-11.92-47.63c0-53.72,41.69-97.26,93.12-97.26s93.12,43.54,93.12,97.26A100.15,100.15,0,0,1,331.2,237.08Z"/></g></svg>