<svg id="Layer_1" data-name="Layer 1" xmlns="http://www.w3.org/2000/svg" viewBox="0 0 1640 100"><defs><style>.cls-1{fill:#5e314c;}.cls-2{fill:#78c477;}</style></defs><path class="cls-1" d="M0,0V77.22C0,89.8,17.48,100,39.05,100S78.1,89.8,78.1,77.22V0Z"/><path class="cls-2" d="M78.1,0V77.22c0,12.58,17.48,22.78,39,22.78s39.05-10.2,39.05-22.78V0Z"/><path class="cls-1" d="M156.19,0V77.22c0,12.58,17.48,22.78,39.05,22.78s39-10.2,39-22.78V0Z"/><path class="cls-2" d="M234.29,0V77.22c0,12.58,17.48,22.78,39,22.78s39.05-10.2,39.05-22.78V0Z"/><path class="cls-1" d="M312.38,0V77.22c0,12.58,17.48,22.78,39.05,22.78s39.05-10.2,39.05-22.78V0Z"/><path class="cls-2" d="M390.48,0V77.22c0,12.58,17.48,22.78,39,22.78s39.05-10.2,39.05-22.78V0Z"/><path class="cls-1" d="M468.57,0V77.22c0,12.58,17.48,22.78,39.05,22.78s39-10.2,39-22.78V0Z"/><path class="cls-2" d="M546.67,0V77.22c0,12.58,17.48,22.78,39,22.78s39-10.2,39-22.78V0Z"/><path class="cls-1" d="M624.76,0V77.22c0,12.58,17.48,22.78,39,22.78s39.05-10.2,39.05-22.78V0Z"/><path class="cls-2" d="M702.86,0V77.22c0,12.58,17.48,22.78,39,22.78S781,89.8,781,77.22V0Z"/><path class="cls-1" d="M781,0V77.22C781,89.8,798.43,100,820,100s39-10.2,39-22.78V0Z"/><path class="cls-2" d="M859.05,0V77.22c0,12.58,17.48,22.78,39.05,22.78s39-10.2,39-22.78V0Z"/><path class="cls-1" d="M937.14,0V77.22c0,12.58,17.49,22.78,39.05,22.78s39-10.2,39-22.78V0Z"/><path class="cls-2" d="M1015.24,0V77.22c0,12.58,17.48,22.78,39,22.78s39-10.2,39-22.78V0Z"/><path class="cls-1" d="M1093.33,0V77.22c0,12.58,17.49,22.78,39.05,22.78s39-10.2,39-22.78V0Z"/><path class="cls-2" d="M1171.43,0V77.22c0,12.58,17.48,22.78,39,22.78s39-10.2,39-22.78V0Z"/><path class="cls-1" d="M1249.52,0V77.22c0,12.58,17.49,22.78,39,22.78s39-10.2,39-22.78V0Z"/><path class="cls-2" d="M1327.62,0V77.22c0,12.58,17.48,22.78,39.05,22.78s39-10.2,39-22.78V0Z"/><path class="cls-1" d="M1405.71,0V77.22c0,12.58,17.49,22.78,39,22.78s39-10.2,39-22.78V0Z"/><path class="cls-2" d="M1483.81,0V77.22c0,12.58,17.48,22.78,39,22.78s39-10.2,39-22.78V0Z"/><path class="cls-1" d="M1561.9,0V77.22c0,12.58,17.49,22.78,39,22.78s39-10.2,39-22.78V0Z"/></svg>