<svg xmlns="http://www.w3.org/2000/svg" xmlns:xlink="http://www.w3.org/1999/xlink" viewBox="0 0 500 500"><defs><style>.cls-1{fill:url(#linear-gradient);}</style><linearGradient id="linear-gradient" x1="39.41" y1="341.1" x2="498.43" y2="142.53" gradientUnits="userSpaceOnUse"><stop offset="0" stop-color="#bcd6ed"/><stop offset="0.14" stop-color="#b3c5dd"/><stop offset="0.42" stop-color="#9a9ab3"/><stop offset="0.81" stop-color="#73556f"/><stop offset="1" stop-color="#5e314c"/></linearGradient></defs><g id="Layer_5" data-name="Layer 5"><path class="cls-1" d="M250,500c138.07,0,250-111.93,250-250a251.55,251.55,0,0,0-2-31.84c-.26-2.09-.55-4.16-.87-6.23a249.85,249.85,0,0,0-6.6-30.37q-1.69-5.94-3.66-11.74a247.31,247.31,0,0,0-11.51-28.21q-1.32-2.73-2.7-5.42-2.76-5.4-5.77-10.63t-6.27-10.31c-1.08-1.69-2.18-3.36-3.31-5q-5.06-7.47-10.62-14.57Q443,90.93,439,86.39q-5.9-6.8-12.26-13.17Q422.54,69,418.09,65A249.76,249.76,0,0,0,81.91,65q-4.44,4-8.69,8.27Q66.86,79.58,61,86.39,57,90.94,53.32,95.65q-5.57,7.09-10.62,14.57c-1.13,1.67-2.23,3.34-3.31,5q-3.26,5.07-6.27,10.31t-5.77,10.63q-1.38,2.69-2.7,5.42a247.31,247.31,0,0,0-11.51,28.21q-2,5.81-3.66,11.74a249.85,249.85,0,0,0-6.6,30.37c-.32,2.07-.61,4.14-.87,6.23A251.55,251.55,0,0,0,0,250C0,388.07,111.93,500,250,500ZM181.68,321.78A64.75,64.75,0,0,1,128.31,279c-.61-1.74-.59-1.76,1.25-1.47a65,65,0,0,0,24.93-.8c.41-.1.81-.2,1.21-.32a.72.72,0,0,0,.22-.15c-.06-.37-.39-.33-.63-.39a64.6,64.6,0,0,1-49.74-55.26,59.13,59.13,0,0,1-.51-7.29c0-1,.29-1.2,1.21-.7a64.06,64.06,0,0,0,22.53,7.06c1.57.2,3.17.27,5.16.43-2.21-1.79-4.14-3.25-6-4.82a64.5,64.5,0,0,1-22.34-51.52,64.39,64.39,0,0,1,8.07-28.71c.47-.85.92-.95,1.53-.18a150,150,0,0,0,11.27,12.49,170.2,170.2,0,0,0,12.92,11.83,186.14,186.14,0,0,0,28,19.19,182.19,182.19,0,0,0,63.34,21.37c4.91.7,9.85,1.19,14.81,1.5,1.71.11,1.77-.06,1.46-1.67-3.11-16-.78-31.09,7.4-45.13,9.84-16.89,24.51-27.43,43.67-31.11,20.07-3.87,38.11,1.06,53.95,14a58.76,58.76,0,0,1,4.5,4.28,2.08,2.08,0,0,0,2.1.62,129,129,0,0,0,27.49-9c3.61-1.64,7.11-3.48,10.56-5.42a2.88,2.88,0,0,1,1.66-.62c-4.95,15-14.18,26.37-27.16,35A121.54,121.54,0,0,0,407,152.45a31.48,31.48,0,0,1-3.27,4.89A130.47,130.47,0,0,1,376.15,185a2.83,2.83,0,0,0-1.1,2.8c.07,4.78.15,9.56-.12,14.35-.29,5.24-.73,10.45-1.42,15.65a186.58,186.58,0,0,1-6.12,28.44A194.29,194.29,0,0,1,353.28,281a188,188,0,0,1-22.42,33.57,173.44,173.44,0,0,1-12.05,13.09,173.65,173.65,0,0,1-89.2,46.7,178.75,178.75,0,0,1-22,3c-4.27.3-8.54.43-12.81.54a177.74,177.74,0,0,1-50.76-6.12,182,182,0,0,1-49.59-21.52c-.47-.29-.92-.61-1.37-.93,0,0,0-.16-.1-.34,34.87,3.47,66.33-5.13,94.55-26.38C185.43,321.78,183.52,322,181.68,321.78Z"/></g></svg>