<?xml version="1.0" encoding="utf-8"?>
<!-- Generator: Adobe Illustrator 25.3.1, SVG Export Plug-In . SVG Version: 6.00 Build 0)  -->
<svg version="1.1" id="Layer_1" xmlns="http://www.w3.org/2000/svg" xmlns:xlink="http://www.w3.org/1999/xlink" x="0px" y="0px"
	 viewBox="0 0 496.4 385" style="enable-background:new 0 0 496.4 385;" xml:space="preserve">
<style type="text/css">
	.st0{fill:#816E94;}
</style>
<g>
	<path class="st0" d="M395.8,55.4H184.3V21.5C184.3,9.6,194,0,205.8,0h168.5c11.9,0,21.5,9.6,21.5,21.5V55.4z M203.3,36.4h173.5
		V21.5c0-1.4-1.1-2.5-2.5-2.5H205.8c-1.4,0-2.5,1.1-2.5,2.5V36.4z"/>
	<path class="st0" d="M474.9,385H21.5C9.6,385,0,375.4,0,363.5V57.9C0,46,9.6,36.4,21.5,36.4h453.4c11.9,0,21.5,9.6,21.5,21.5v305.6
		C496.4,375.4,486.8,385,474.9,385z M21.5,55.4c-1.4,0-2.5,1.1-2.5,2.5v305.6c0,1.4,1.1,2.5,2.5,2.5h453.4c1.4,0,2.5-1.1,2.5-2.5
		V57.9c0-1.4-1.1-2.5-2.5-2.5H21.5z"/>
	<path class="st0" d="M290.1,333.5c-67.7,0-122.8-55.1-122.8-122.8c0-67.7,55.1-122.8,122.8-122.8c67.7,0,122.8,55.1,122.8,122.8
		C412.9,278.4,357.8,333.5,290.1,333.5z M290.1,106.9c-57.2,0-103.8,46.6-103.8,103.8c0,57.2,46.6,103.8,103.8,103.8
		c57.2,0,103.8-46.6,103.8-103.8C393.9,153.4,347.3,106.9,290.1,106.9z"/>
	<path class="st0" d="M290.1,302.1c-50.4,0-91.4-41-91.4-91.4s41-91.4,91.4-91.4s91.4,41,91.4,91.4S340.5,302.1,290.1,302.1z
		 M290.1,138.3c-39.9,0-72.4,32.5-72.4,72.4s32.5,72.4,72.4,72.4s72.4-32.5,72.4-72.4S330,138.3,290.1,138.3z"/>
	<path class="st0" d="M143.9,131.4h-78c-11.9,0-21.5-9.6-21.5-21.5V92.7c0-11.9,9.6-21.5,21.5-21.5h78c11.9,0,21.5,9.6,21.5,21.5
		v17.2C165.4,121.8,155.8,131.4,143.9,131.4z M65.9,90.2c-1.4,0-2.5,1.1-2.5,2.5v17.2c0,1.4,1.1,2.5,2.5,2.5h78
		c1.4,0,2.5-1.1,2.5-2.5V92.7c0-1.4-1.1-2.5-2.5-2.5H65.9z"/>
</g>
</svg>
