<svg xmlns="http://www.w3.org/2000/svg" viewBox="0 0 499.68 347.71"><defs><style>.cls-1{fill:#231f20;}</style></defs><g id="Layer_2" data-name="Layer 2"><g id="Layer_5" data-name="Layer 5"><path class="cls-1" d="M480.68,0H19C8.52,0,0,7.85,0,17.5V330.22c0,9.65,8.52,17.49,19,17.49H480.68c10.48,0,19-7.84,19-17.49V17.5C499.68,7.85,491.16,0,480.68,0Zm1.9,323.79L307.72,173.86,482.58,23.92a14,14,0,0,0,3.1-3.77V327.56A14,14,0,0,0,482.58,323.79ZM472.35,12.89a.9.9,0,0,1,.94.59.79.79,0,0,1-.25,1L297.45,165.05h0l-31.1,26.67c-11,9.39-27.91,9.68-39.23.88-.37-.28-.73-.58-1.08-.88L19.35,14.49a.78.78,0,0,1-.25-1,.89.89,0,0,1,.93-.59ZM14,320.2V27.51L184.66,173.86Zm6,14.62a.9.9,0,0,1-.93-.58.78.78,0,0,1,.25-1L194.94,182.67l21.56,18.48a41.1,41.1,0,0,0,4.92,3.64,46.17,46.17,0,0,0,24.77,7.07h0A46.18,46.18,0,0,0,271,204.79a41.92,41.92,0,0,0,4.92-3.64l21.56-18.48L473,333.23a.79.79,0,0,1,.25,1,.9.9,0,0,1-.94.58Z"/></g></g></svg>