<?xml version="1.0" encoding="utf-8"?>
<!-- Generator: Adobe Illustrator 25.3.1, SVG Export Plug-In . SVG Version: 6.00 Build 0)  -->
<svg version="1.1" id="Layer_1" xmlns="http://www.w3.org/2000/svg" xmlns:xlink="http://www.w3.org/1999/xlink" x="0px" y="0px"
	 viewBox="0 0 316.9 496.9" style="enable-background:new 0 0 316.9 496.9;" xml:space="preserve">
<style type="text/css">
	.st0{fill:#061838;}
</style>
<path class="st0" d="M308.3,252L158.5,0L9.7,250.1l7,4.1v0l-7-4.1l-9.5,16.3h27c15.1,5.8,29.9,24.5,40.7,51.6
	c11.1,27.8,17.6,62.9,18.5,99.8H49.1v79.1h218.7v-79.1h-37.3c1-36.8,7.4-72,18.5-99.8c10.8-27.1,25.6-45.8,40.7-51.6h27.4L308.3,252
	z M158.5,242c14,0,25.3,11.4,25.3,25.3s-11.4,25.3-25.3,25.3c-14,0-25.3-11.4-25.3-25.3S144.5,242,158.5,242z M248.8,477.9H68.1
	v-41.1h18.4h143.9h18.4V477.9z M231.4,311c-11.9,30-18.9,67.6-19.9,106.8H105.4c-1-39.2-7.9-76.8-19.9-106.8
	c-13.2-33-31.8-55.3-52.6-62.7L149,53.2V224c-19.9,4.4-34.8,22.1-34.8,43.3c0,24.4,19.9,44.3,44.3,44.3c24.4,0,44.3-19.9,44.3-44.3
	c0-21.2-14.9-38.9-34.8-43.3V53.2l114.3,192.3H282l1.8,2.9C263.1,255.9,244.5,278.1,231.4,311z"/>
</svg>
