<svg xmlns="http://www.w3.org/2000/svg" viewBox="0 0 500 500"><defs><style>.cls-1{fill:#c6ddef;}</style></defs><g id="Layer_1" data-name="Layer 1"><path class="cls-1" d="M407,0H93C41.86,0,0,41.86,0,93V407c0,51.16,41.86,93,93,93H407c51.16,0,93-41.86,93-93V93C500,41.86,458.14,0,407,0Zm25.8,141.9a157.57,157.57,0,0,1-33.17,33.22c-1.28.94-1.35,1.91-1.33,3.36.09,5.75.19,11.49-.13,17.25-.36,6.29-.89,12.56-1.72,18.81a224.32,224.32,0,0,1-7.35,34.19,232.76,232.76,0,0,1-17,41.75,225.13,225.13,0,0,1-26.95,40.36,209,209,0,0,1-121.7,71.88A213.93,213.93,0,0,1,197,406.29c-5.13.36-10.26.52-15.4.66a213.67,213.67,0,0,1-61-7.36A219.1,219.1,0,0,1,61,373.73c-.56-.35-1.1-.75-1.64-1.13-.06-.05-.06-.2-.12-.4,41.91,4.17,79.73-6.18,113.65-31.72-2.53-.92-4.83-.63-7-.91a77.83,77.83,0,0,1-64.15-51.38c-.74-2.09-.71-2.12,1.49-1.76a78.18,78.18,0,0,0,30-1c.49-.11,1-.24,1.45-.38a1.81,1.81,0,0,0,.27-.18c-.08-.45-.47-.4-.76-.47A77.67,77.67,0,0,1,74.33,218a69.33,69.33,0,0,1-.62-8.76c0-1.22.35-1.44,1.46-.85a77.35,77.35,0,0,0,27.08,8.5c1.89.24,3.81.31,6.2.51-2.66-2.15-5-3.9-7.17-5.79a77.54,77.54,0,0,1-26.86-61.94,77.44,77.44,0,0,1,9.71-34.51c.55-1,1.1-1.14,1.84-.21a181.71,181.71,0,0,0,13.54,15A209,209,0,0,0,115,144.18a223.11,223.11,0,0,0,33.61,23.07,220.21,220.21,0,0,0,42.8,18.28,221.18,221.18,0,0,0,33.33,7.4c5.91.85,11.85,1.44,17.81,1.81,2.06.13,2.13-.07,1.75-2-3.73-19.18-.93-37.37,8.9-54.25,11.83-20.3,29.46-33,52.5-37.4,24.13-4.64,45.81,1.28,64.85,16.85,1.94,1.59,3.66,3.38,5.42,5.14a2.45,2.45,0,0,0,2.51.75A155,155,0,0,0,411.57,113c4.33-2,8.54-4.18,12.69-6.52a3.47,3.47,0,0,1,2-.74c-5.95,18-17.05,31.7-32.65,42.05A146,146,0,0,0,436.7,136,38.49,38.49,0,0,1,432.78,141.9Z"/></g></svg>