<svg xmlns="http://www.w3.org/2000/svg" viewBox="0 0 500 500"><defs><style>.cls-1{fill:#c6ddef;}</style></defs><g id="Layer_2" data-name="Layer 2"><path class="cls-1" d="M401.81,156.56C398,125.09,368.26,98.07,336.62,98c-57.11-.19-114.23-.06-171.34-.08a71.53,71.53,0,0,0-8.66.7C125.14,102.4,98.23,132.13,98,163.77c-.19,28.8,0,57.6,0,86.4h0q0,40.29,0,80.58a107.06,107.06,0,0,0,.69,13c3.87,31.45,33.59,58.49,65.21,58.6,57.12.19,114.23.06,171.35.08a71.54,71.54,0,0,0,8.65-.71c31.48-3.81,58.49-33.54,58.6-65.19.19-57.11.06-114.22.08-171.34A71.53,71.53,0,0,0,401.81,156.56ZM249.88,346.37c-52.5-.18-95.94-43.49-95.86-96.37.08-52.72,43.56-96.22,96.55-96,52.62.18,96.24,43.59,95.78,96.37C346.66,303,302.84,346.55,249.88,346.37ZM350.22,175.09a24.51,24.51,0,0,1-24.72-24.18,24.82,24.82,0,0,1,24.4-25c13.18-.21,24.61,11,24.75,24.35A24.52,24.52,0,0,1,350.22,175.09Z"/><path class="cls-1" d="M250.44,187.94a62.22,62.22,0,1,0,62,62.53A62.11,62.11,0,0,0,250.44,187.94Z"/><path class="cls-1" d="M407,0H93C41.86,0,0,41.86,0,93V407c0,51.16,41.86,93,93,93H407c51.16,0,93-41.86,93-93V93C500,41.86,458.14,0,407,0Zm29.15,345.29c-.37,1.78-.79,3.54-1.12,5.32-6.17,33.62-24.56,58.32-54.52,74.5-11,5.93-22.92,8.91-35.13,11H155.1c-15.43-2.49-30.17-6.94-43.3-15.68-30.07-20-47.06-48-47.54-84.2-.76-57.34-.18-114.7-.24-172a86.06,86.06,0,0,1,1.83-17.28c10-49.59,53.63-83.11,100.88-82.93,55.66.22,111.32,0,167,0a85.57,85.57,0,0,1,13.38.74q53.58,8.46,78.73,56.47c5.56,10.62,8.31,22.12,10.32,33.84Z"/></g></svg>