<svg id="Layer_3" data-name="Layer 3" xmlns="http://www.w3.org/2000/svg" viewBox="0 0 500 500"><defs><style>.cls-1{fill:#c6ddef;}</style></defs><path class="cls-1" d="M407,0H93C41.86,0,0,41.86,0,93V407c0,51.16,41.86,93,93,93H407c51.16,0,93-41.86,93-93V93C500,41.86,458.14,0,407,0ZM375.26,143.27c0,10.24-3.06,13.52-13.31,13.69-11.49.19-23,0-34.48.09-5.53,0-11.06-.12-16.54,1-10.66,2.26-15.1,7.38-17.17,18-3.05,15.69-.66,31.45-1.52,47.15-.19,3.4,1.95,3.34,4.32,3.34,20.91,0,41.83.21,62.74-.12,8.36-.14,13.7,4.06,13.52,13.64-.38,20.09-.12,40.2-.14,60.3,0,11-3.6,14.6-14.75,14.63-19.8,0-39.61,0-59.41,0-6.27,0-6.27,0-6.27,6.46q0,82.55,0,165.1a46.12,46.12,0,0,1-.1,5c-.55,4.94-3.89,8.31-8.73,8.33q-39.89.1-79.77,0c-4.46,0-7.31-2.78-8.36-7.23a33.42,33.42,0,0,1-.61-7.85q0-81.72,0-163.44c0-6.33,0-6.34-6.48-6.34-16.06,0-32.13-.2-48.19.07-10.08.17-15.3-3.74-15.26-15.26q.12-30,0-59.89c0-7.6,4.45-13.91,13.41-13.58,16.87.63,33.79.19,50.68.18,5.83,0,5.84,0,5.84-6,0-13-.19-26.06.06-39.09.28-14.84,1.14-29.75,6.73-43.68,5.8-14.45,13.88-27.39,25.9-37.89,17.61-15.38,38.27-22.73,61-25.55a15.41,15.41,0,0,0,2-.54h78.12c5.3,2.11,6.83,6.41,6.82,11.66Q375.25,114.38,375.26,143.27Z"/></svg>