<?xml version="1.0" encoding="utf-8"?>
<!-- Generator: Adobe Illustrator 25.3.1, SVG Export Plug-In . SVG Version: 6.00 Build 0)  -->
<svg version="1.1" id="Layer_1" xmlns="http://www.w3.org/2000/svg" xmlns:xlink="http://www.w3.org/1999/xlink" x="0px" y="0px"
	 viewBox="0 0 496.4 444.6" style="enable-background:new 0 0 496.4 444.6;" xml:space="preserve">
<style type="text/css">
	.st0{fill:#1A7E89;}
</style>
<g id="Layer_1-2">
	<path class="st0" d="M72.7,271.9l105.2-105.2c3.3-3.3,3.3-8.7,0-12s-8.7-3.3-12,0l-111,111.1c-3.3,3.4-3.3,8.8,0,12.1L166,389
		c3.3,3.3,8.7,3.3,12,0s3.3-8.7,0-12l0,0L72.7,271.9z"/>
	<path class="st0" d="M423.7,271.9L318.5,166.8c-3.3-3.3-3.3-8.7,0-12s8.7-3.3,12,0l111.1,111.1c3.3,3.4,3.3,8.8,0,12.1L330.5,389
		c-3.3,3.3-8.7,3.3-12,0s-3.3-8.7,0-12L423.7,271.9z"/>
	<path class="st0" d="M187.5,380.1l106.1-223.6c1.9-4,6.6-5.6,10.6-3.8l0.9,0.5c4,1.9,5.6,6.6,3.8,10.6L202.8,387.4
		c-1.9,4-6.6,5.6-10.6,3.8l-0.9-0.5C187.3,388.8,185.6,384.1,187.5,380.1z"/>
	<path class="st0" d="M474.9,0H21.5C9.6,0,0,9.6,0,21.5v401.6c0,11.9,9.6,21.5,21.5,21.5h453.4c11.9,0,21.5-9.6,21.5-21.5V21.5
		C496.4,9.6,486.8,0,474.9,0z M21.5,19h453.4c1.4,0,2.5,1.1,2.5,2.5v75.4H19V21.5C19,20.1,20.1,19,21.5,19z M474.9,425.6H21.5
		c-1.4,0-2.5-1.1-2.5-2.5V117.9h458.4v305.3C477.4,424.5,476.3,425.6,474.9,425.6z"/>
	<path class="st0" d="M59.5,76.6C49,76.6,40.4,68,40.4,57.4S49,38.3,59.5,38.3s19.1,8.6,19.1,19.1S70.1,76.6,59.5,76.6z M59.5,47.3
		c-5.6,0-10.1,4.5-10.1,10.1s4.5,10.1,10.1,10.1c5.6,0,10.1-4.5,10.1-10.1S65.1,47.3,59.5,47.3z"/>
	<path class="st0" d="M116.4,76.6c-10.6,0-19.1-8.6-19.1-19.1s8.6-19.1,19.1-19.1s19.1,8.6,19.1,19.1S127,76.6,116.4,76.6z
		 M116.4,47.3c-5.6,0-10.1,4.5-10.1,10.1s4.5,10.1,10.1,10.1s10.1-4.5,10.1-10.1S122,47.3,116.4,47.3z"/>
	<path class="st0" d="M171.4,76.6c-10.6,0-19.1-8.6-19.1-19.1s8.6-19.1,19.1-19.1s19.1,8.6,19.1,19.1S182,76.6,171.4,76.6z
		 M171.4,47.3c-5.6,0-10.1,4.5-10.1,10.1s4.5,10.1,10.1,10.1s10.1-4.5,10.1-10.1S177,47.3,171.4,47.3z"/>
</g>
</svg>
